<mxfile host="app.diagrams.net" modified="2024-04-19T18:35:06.691Z" agent="Mozilla/5.0 (Windows NT 10.0; Win64; x64) AppleWebKit/537.36 (KHTML, like Gecko) Chrome/123.0.0.0 Safari/537.36 Edg/123.0.0.0" etag="OLGYMj6_fiGu4E-LLdjZ" version="24.2.5" type="device">
  <diagram id="C5RBs43oDa-KdzZeNtuy" name="Page-1">
    <mxGraphModel dx="906" dy="502" grid="1" gridSize="10" guides="1" tooltips="1" connect="1" arrows="1" fold="1" page="1" pageScale="1" pageWidth="827" pageHeight="1169" math="0" shadow="0">
      <root>
        <mxCell id="WIyWlLk6GJQsqaUBKTNV-0" />
        <mxCell id="WIyWlLk6GJQsqaUBKTNV-1" parent="WIyWlLk6GJQsqaUBKTNV-0" />
        <mxCell id="htsdz4aEK9-7NVSgiyC0-4" value="" style="edgeStyle=orthogonalEdgeStyle;rounded=0;orthogonalLoop=1;jettySize=auto;html=1;" parent="WIyWlLk6GJQsqaUBKTNV-1" source="htsdz4aEK9-7NVSgiyC0-0" target="htsdz4aEK9-7NVSgiyC0-1" edge="1">
          <mxGeometry relative="1" as="geometry" />
        </mxCell>
        <mxCell id="htsdz4aEK9-7NVSgiyC0-0" value="Start" style="ellipse;whiteSpace=wrap;html=1;" parent="WIyWlLk6GJQsqaUBKTNV-1" vertex="1">
          <mxGeometry x="30" y="89" width="70" height="40" as="geometry" />
        </mxCell>
        <mxCell id="htsdz4aEK9-7NVSgiyC0-11" value="" style="edgeStyle=orthogonalEdgeStyle;rounded=0;orthogonalLoop=1;jettySize=auto;html=1;" parent="WIyWlLk6GJQsqaUBKTNV-1" source="htsdz4aEK9-7NVSgiyC0-1" target="htsdz4aEK9-7NVSgiyC0-10" edge="1">
          <mxGeometry relative="1" as="geometry" />
        </mxCell>
        <mxCell id="htsdz4aEK9-7NVSgiyC0-1" value="Kill Excel Processes" style="rounded=0;whiteSpace=wrap;html=1;" parent="WIyWlLk6GJQsqaUBKTNV-1" vertex="1">
          <mxGeometry x="121" y="79" width="120" height="60" as="geometry" />
        </mxCell>
        <mxCell id="1reo4kSoKwoTpZswy6ko-2" style="edgeStyle=orthogonalEdgeStyle;rounded=0;orthogonalLoop=1;jettySize=auto;html=1;exitX=0.5;exitY=0;exitDx=0;exitDy=0;entryX=0.5;entryY=1;entryDx=0;entryDy=0;" edge="1" parent="WIyWlLk6GJQsqaUBKTNV-1" source="htsdz4aEK9-7NVSgiyC0-3" target="htsdz4aEK9-7NVSgiyC0-63">
          <mxGeometry relative="1" as="geometry">
            <mxPoint x="1080" y="379" as="targetPoint" />
          </mxGeometry>
        </mxCell>
        <mxCell id="htsdz4aEK9-7NVSgiyC0-3" value="Wait for new User Access Request" style="rounded=0;whiteSpace=wrap;html=1;" parent="WIyWlLk6GJQsqaUBKTNV-1" vertex="1">
          <mxGeometry x="1121" y="536" width="120" height="60" as="geometry" />
        </mxCell>
        <mxCell id="htsdz4aEK9-7NVSgiyC0-55" style="edgeStyle=orthogonalEdgeStyle;rounded=0;orthogonalLoop=1;jettySize=auto;html=1;exitX=1;exitY=0.5;exitDx=0;exitDy=0;entryX=0;entryY=0.5;entryDx=0;entryDy=0;" parent="WIyWlLk6GJQsqaUBKTNV-1" source="htsdz4aEK9-7NVSgiyC0-9" target="htsdz4aEK9-7NVSgiyC0-15" edge="1">
          <mxGeometry relative="1" as="geometry">
            <Array as="points">
              <mxPoint x="370" y="234" />
              <mxPoint x="370" y="109" />
            </Array>
          </mxGeometry>
        </mxCell>
        <mxCell id="htsdz4aEK9-7NVSgiyC0-9" value="Create Missing Folders" style="rounded=0;whiteSpace=wrap;html=1;" parent="WIyWlLk6GJQsqaUBKTNV-1" vertex="1">
          <mxGeometry x="256" y="209" width="96" height="50" as="geometry" />
        </mxCell>
        <mxCell id="htsdz4aEK9-7NVSgiyC0-12" value="" style="edgeStyle=orthogonalEdgeStyle;rounded=0;orthogonalLoop=1;jettySize=auto;html=1;" parent="WIyWlLk6GJQsqaUBKTNV-1" source="htsdz4aEK9-7NVSgiyC0-10" target="htsdz4aEK9-7NVSgiyC0-9" edge="1">
          <mxGeometry relative="1" as="geometry" />
        </mxCell>
        <mxCell id="htsdz4aEK9-7NVSgiyC0-13" value="Is Invalid" style="edgeLabel;html=1;align=center;verticalAlign=middle;resizable=0;points=[];" parent="htsdz4aEK9-7NVSgiyC0-12" vertex="1" connectable="0">
          <mxGeometry x="-0.1" y="-1" relative="1" as="geometry">
            <mxPoint as="offset" />
          </mxGeometry>
        </mxCell>
        <mxCell id="htsdz4aEK9-7NVSgiyC0-16" value="" style="edgeStyle=orthogonalEdgeStyle;rounded=0;orthogonalLoop=1;jettySize=auto;html=1;" parent="WIyWlLk6GJQsqaUBKTNV-1" source="htsdz4aEK9-7NVSgiyC0-10" target="htsdz4aEK9-7NVSgiyC0-15" edge="1">
          <mxGeometry relative="1" as="geometry" />
        </mxCell>
        <mxCell id="htsdz4aEK9-7NVSgiyC0-18" value="Is Valid" style="edgeLabel;html=1;align=center;verticalAlign=middle;resizable=0;points=[];" parent="htsdz4aEK9-7NVSgiyC0-16" vertex="1" connectable="0">
          <mxGeometry x="-0.2759" y="-1" relative="1" as="geometry">
            <mxPoint as="offset" />
          </mxGeometry>
        </mxCell>
        <mxCell id="htsdz4aEK9-7NVSgiyC0-10" value="If Folder Structure" style="rhombus;whiteSpace=wrap;html=1;" parent="WIyWlLk6GJQsqaUBKTNV-1" vertex="1">
          <mxGeometry x="264" y="69" width="80" height="80" as="geometry" />
        </mxCell>
        <mxCell id="htsdz4aEK9-7NVSgiyC0-19" value="" style="edgeStyle=orthogonalEdgeStyle;rounded=0;orthogonalLoop=1;jettySize=auto;html=1;" parent="WIyWlLk6GJQsqaUBKTNV-1" source="htsdz4aEK9-7NVSgiyC0-15" target="htsdz4aEK9-7NVSgiyC0-17" edge="1">
          <mxGeometry relative="1" as="geometry" />
        </mxCell>
        <mxCell id="htsdz4aEK9-7NVSgiyC0-20" value="Does NOT exist" style="edgeLabel;html=1;align=center;verticalAlign=middle;resizable=0;points=[];" parent="htsdz4aEK9-7NVSgiyC0-19" vertex="1" connectable="0">
          <mxGeometry x="-0.0357" y="1" relative="1" as="geometry">
            <mxPoint as="offset" />
          </mxGeometry>
        </mxCell>
        <mxCell id="htsdz4aEK9-7NVSgiyC0-35" value="" style="edgeStyle=orthogonalEdgeStyle;rounded=0;orthogonalLoop=1;jettySize=auto;html=1;" parent="WIyWlLk6GJQsqaUBKTNV-1" source="htsdz4aEK9-7NVSgiyC0-15" target="htsdz4aEK9-7NVSgiyC0-34" edge="1">
          <mxGeometry relative="1" as="geometry" />
        </mxCell>
        <mxCell id="htsdz4aEK9-7NVSgiyC0-36" value="Exists" style="edgeLabel;html=1;align=center;verticalAlign=middle;resizable=0;points=[];" parent="htsdz4aEK9-7NVSgiyC0-35" vertex="1" connectable="0">
          <mxGeometry x="0.0833" y="-5" relative="1" as="geometry">
            <mxPoint x="-6" y="-5" as="offset" />
          </mxGeometry>
        </mxCell>
        <mxCell id="htsdz4aEK9-7NVSgiyC0-15" value="If Config File" style="rhombus;whiteSpace=wrap;html=1;" parent="WIyWlLk6GJQsqaUBKTNV-1" vertex="1">
          <mxGeometry x="402" y="69" width="80" height="80" as="geometry" />
        </mxCell>
        <mxCell id="htsdz4aEK9-7NVSgiyC0-22" value="" style="edgeStyle=orthogonalEdgeStyle;rounded=0;orthogonalLoop=1;jettySize=auto;html=1;" parent="WIyWlLk6GJQsqaUBKTNV-1" source="htsdz4aEK9-7NVSgiyC0-17" target="htsdz4aEK9-7NVSgiyC0-21" edge="1">
          <mxGeometry relative="1" as="geometry" />
        </mxCell>
        <mxCell id="htsdz4aEK9-7NVSgiyC0-17" value="Download Config file" style="rounded=0;whiteSpace=wrap;html=1;" parent="WIyWlLk6GJQsqaUBKTNV-1" vertex="1">
          <mxGeometry x="382" y="205" width="120" height="60" as="geometry" />
        </mxCell>
        <mxCell id="htsdz4aEK9-7NVSgiyC0-24" value="" style="edgeStyle=orthogonalEdgeStyle;rounded=0;orthogonalLoop=1;jettySize=auto;html=1;entryX=1;entryY=0.5;entryDx=0;entryDy=0;" parent="WIyWlLk6GJQsqaUBKTNV-1" source="htsdz4aEK9-7NVSgiyC0-21" target="htsdz4aEK9-7NVSgiyC0-26" edge="1">
          <mxGeometry relative="1" as="geometry">
            <mxPoint x="344" y="326" as="targetPoint" />
            <Array as="points">
              <mxPoint x="373" y="326" />
              <mxPoint x="373" y="327" />
            </Array>
          </mxGeometry>
        </mxCell>
        <mxCell id="htsdz4aEK9-7NVSgiyC0-25" value="Yes" style="edgeLabel;html=1;align=center;verticalAlign=middle;resizable=0;points=[];" parent="htsdz4aEK9-7NVSgiyC0-24" vertex="1" connectable="0">
          <mxGeometry x="-0.069" y="3" relative="1" as="geometry">
            <mxPoint as="offset" />
          </mxGeometry>
        </mxCell>
        <mxCell id="htsdz4aEK9-7NVSgiyC0-30" value="" style="edgeStyle=orthogonalEdgeStyle;rounded=0;orthogonalLoop=1;jettySize=auto;html=1;" parent="WIyWlLk6GJQsqaUBKTNV-1" source="htsdz4aEK9-7NVSgiyC0-21" target="htsdz4aEK9-7NVSgiyC0-27" edge="1">
          <mxGeometry relative="1" as="geometry" />
        </mxCell>
        <mxCell id="htsdz4aEK9-7NVSgiyC0-33" value="No" style="edgeLabel;html=1;align=center;verticalAlign=middle;resizable=0;points=[];" parent="htsdz4aEK9-7NVSgiyC0-30" vertex="1" connectable="0">
          <mxGeometry x="-0.6327" y="1" relative="1" as="geometry">
            <mxPoint as="offset" />
          </mxGeometry>
        </mxCell>
        <mxCell id="htsdz4aEK9-7NVSgiyC0-21" value="Download Successful" style="rhombus;whiteSpace=wrap;html=1;" parent="WIyWlLk6GJQsqaUBKTNV-1" vertex="1">
          <mxGeometry x="402" y="286" width="80" height="80" as="geometry" />
        </mxCell>
        <mxCell id="htsdz4aEK9-7NVSgiyC0-32" value="" style="edgeStyle=orthogonalEdgeStyle;rounded=0;orthogonalLoop=1;jettySize=auto;html=1;" parent="WIyWlLk6GJQsqaUBKTNV-1" source="htsdz4aEK9-7NVSgiyC0-26" target="htsdz4aEK9-7NVSgiyC0-29" edge="1">
          <mxGeometry relative="1" as="geometry" />
        </mxCell>
        <mxCell id="htsdz4aEK9-7NVSgiyC0-26" value="Prompt user to fill in Config fields in file" style="rounded=0;whiteSpace=wrap;html=1;" parent="WIyWlLk6GJQsqaUBKTNV-1" vertex="1">
          <mxGeometry x="220" y="296" width="120" height="60" as="geometry" />
        </mxCell>
        <mxCell id="htsdz4aEK9-7NVSgiyC0-31" style="edgeStyle=orthogonalEdgeStyle;rounded=0;orthogonalLoop=1;jettySize=auto;html=1;exitX=0;exitY=0.5;exitDx=0;exitDy=0;entryX=0.5;entryY=1;entryDx=0;entryDy=0;" parent="WIyWlLk6GJQsqaUBKTNV-1" source="htsdz4aEK9-7NVSgiyC0-27" target="htsdz4aEK9-7NVSgiyC0-29" edge="1">
          <mxGeometry relative="1" as="geometry" />
        </mxCell>
        <mxCell id="htsdz4aEK9-7NVSgiyC0-27" value="Throw Business Exception" style="rounded=0;whiteSpace=wrap;html=1;fillColor=#f8cecc;strokeColor=#b85450;fontColor=#ff0000;" parent="WIyWlLk6GJQsqaUBKTNV-1" vertex="1">
          <mxGeometry x="382" y="397" width="120" height="42" as="geometry" />
        </mxCell>
        <mxCell id="htsdz4aEK9-7NVSgiyC0-29" value="End" style="ellipse;whiteSpace=wrap;html=1;" parent="WIyWlLk6GJQsqaUBKTNV-1" vertex="1">
          <mxGeometry x="120" y="306" width="70" height="40" as="geometry" />
        </mxCell>
        <mxCell id="htsdz4aEK9-7NVSgiyC0-38" value="" style="edgeStyle=orthogonalEdgeStyle;rounded=0;orthogonalLoop=1;jettySize=auto;html=1;" parent="WIyWlLk6GJQsqaUBKTNV-1" source="htsdz4aEK9-7NVSgiyC0-34" target="htsdz4aEK9-7NVSgiyC0-37" edge="1">
          <mxGeometry relative="1" as="geometry" />
        </mxCell>
        <mxCell id="htsdz4aEK9-7NVSgiyC0-45" value="" style="edgeStyle=orthogonalEdgeStyle;rounded=0;orthogonalLoop=1;jettySize=auto;html=1;" parent="WIyWlLk6GJQsqaUBKTNV-1" source="htsdz4aEK9-7NVSgiyC0-34" target="htsdz4aEK9-7NVSgiyC0-44" edge="1">
          <mxGeometry relative="1" as="geometry" />
        </mxCell>
        <mxCell id="htsdz4aEK9-7NVSgiyC0-46" value="Exists" style="edgeLabel;html=1;align=center;verticalAlign=middle;resizable=0;points=[];" parent="htsdz4aEK9-7NVSgiyC0-45" vertex="1" connectable="0">
          <mxGeometry x="0.05" y="-1" relative="1" as="geometry">
            <mxPoint x="-19" y="-1" as="offset" />
          </mxGeometry>
        </mxCell>
        <mxCell id="htsdz4aEK9-7NVSgiyC0-34" value="If&amp;nbsp;&lt;div&gt;Transaction Log&lt;/div&gt;" style="rhombus;whiteSpace=wrap;html=1;" parent="WIyWlLk6GJQsqaUBKTNV-1" vertex="1">
          <mxGeometry x="540" y="69" width="80" height="80" as="geometry" />
        </mxCell>
        <mxCell id="htsdz4aEK9-7NVSgiyC0-41" style="edgeStyle=orthogonalEdgeStyle;rounded=0;orthogonalLoop=1;jettySize=auto;html=1;exitX=0.5;exitY=1;exitDx=0;exitDy=0;entryX=0.5;entryY=0;entryDx=0;entryDy=0;" parent="WIyWlLk6GJQsqaUBKTNV-1" source="htsdz4aEK9-7NVSgiyC0-37" target="htsdz4aEK9-7NVSgiyC0-40" edge="1">
          <mxGeometry relative="1" as="geometry" />
        </mxCell>
        <mxCell id="htsdz4aEK9-7NVSgiyC0-37" value="Download Transaction Log file" style="rounded=0;whiteSpace=wrap;html=1;" parent="WIyWlLk6GJQsqaUBKTNV-1" vertex="1">
          <mxGeometry x="520" y="205" width="120" height="60" as="geometry" />
        </mxCell>
        <mxCell id="htsdz4aEK9-7NVSgiyC0-39" value="Does NOT exist" style="edgeLabel;html=1;align=center;verticalAlign=middle;resizable=0;points=[];" parent="WIyWlLk6GJQsqaUBKTNV-1" vertex="1" connectable="0">
          <mxGeometry x="580" y="175" as="geometry" />
        </mxCell>
        <mxCell id="htsdz4aEK9-7NVSgiyC0-42" style="edgeStyle=orthogonalEdgeStyle;rounded=0;orthogonalLoop=1;jettySize=auto;html=1;exitX=0.5;exitY=1;exitDx=0;exitDy=0;entryX=1;entryY=0.5;entryDx=0;entryDy=0;" parent="WIyWlLk6GJQsqaUBKTNV-1" source="htsdz4aEK9-7NVSgiyC0-40" target="htsdz4aEK9-7NVSgiyC0-27" edge="1">
          <mxGeometry relative="1" as="geometry" />
        </mxCell>
        <mxCell id="htsdz4aEK9-7NVSgiyC0-43" value="No" style="edgeLabel;html=1;align=center;verticalAlign=middle;resizable=0;points=[];" parent="htsdz4aEK9-7NVSgiyC0-42" vertex="1" connectable="0">
          <mxGeometry x="-0.6618" y="1" relative="1" as="geometry">
            <mxPoint as="offset" />
          </mxGeometry>
        </mxCell>
        <mxCell id="htsdz4aEK9-7NVSgiyC0-47" style="edgeStyle=orthogonalEdgeStyle;rounded=0;orthogonalLoop=1;jettySize=auto;html=1;exitX=1;exitY=0.5;exitDx=0;exitDy=0;entryX=0;entryY=0.5;entryDx=0;entryDy=0;" parent="WIyWlLk6GJQsqaUBKTNV-1" source="htsdz4aEK9-7NVSgiyC0-40" target="htsdz4aEK9-7NVSgiyC0-44" edge="1">
          <mxGeometry relative="1" as="geometry">
            <Array as="points">
              <mxPoint x="660" y="329" />
              <mxPoint x="660" y="109" />
            </Array>
          </mxGeometry>
        </mxCell>
        <mxCell id="htsdz4aEK9-7NVSgiyC0-50" value="Yes" style="edgeLabel;html=1;align=center;verticalAlign=middle;resizable=0;points=[];" parent="htsdz4aEK9-7NVSgiyC0-47" vertex="1" connectable="0">
          <mxGeometry x="-0.8483" y="-1" relative="1" as="geometry">
            <mxPoint x="-4" as="offset" />
          </mxGeometry>
        </mxCell>
        <mxCell id="htsdz4aEK9-7NVSgiyC0-40" value="Download Successful" style="rhombus;whiteSpace=wrap;html=1;" parent="WIyWlLk6GJQsqaUBKTNV-1" vertex="1">
          <mxGeometry x="540" y="289" width="80" height="80" as="geometry" />
        </mxCell>
        <mxCell id="htsdz4aEK9-7NVSgiyC0-49" style="edgeStyle=orthogonalEdgeStyle;rounded=0;orthogonalLoop=1;jettySize=auto;html=1;exitX=0.5;exitY=1;exitDx=0;exitDy=0;entryX=0.5;entryY=0;entryDx=0;entryDy=0;" parent="WIyWlLk6GJQsqaUBKTNV-1" source="htsdz4aEK9-7NVSgiyC0-44" target="htsdz4aEK9-7NVSgiyC0-48" edge="1">
          <mxGeometry relative="1" as="geometry" />
        </mxCell>
        <mxCell id="htsdz4aEK9-7NVSgiyC0-57" value="" style="edgeStyle=orthogonalEdgeStyle;rounded=0;orthogonalLoop=1;jettySize=auto;html=1;" parent="WIyWlLk6GJQsqaUBKTNV-1" source="htsdz4aEK9-7NVSgiyC0-44" target="htsdz4aEK9-7NVSgiyC0-56" edge="1">
          <mxGeometry relative="1" as="geometry" />
        </mxCell>
        <mxCell id="htsdz4aEK9-7NVSgiyC0-44" value="If&amp;nbsp;&lt;div&gt;Master&lt;/div&gt;&lt;div&gt;Sheet&lt;/div&gt;" style="rhombus;whiteSpace=wrap;html=1;" parent="WIyWlLk6GJQsqaUBKTNV-1" vertex="1">
          <mxGeometry x="690" y="69" width="80" height="80" as="geometry" />
        </mxCell>
        <mxCell id="htsdz4aEK9-7NVSgiyC0-52" value="" style="edgeStyle=orthogonalEdgeStyle;rounded=0;orthogonalLoop=1;jettySize=auto;html=1;" parent="WIyWlLk6GJQsqaUBKTNV-1" source="htsdz4aEK9-7NVSgiyC0-48" target="htsdz4aEK9-7NVSgiyC0-51" edge="1">
          <mxGeometry relative="1" as="geometry" />
        </mxCell>
        <mxCell id="htsdz4aEK9-7NVSgiyC0-48" value="Download Master Sheet file" style="rounded=0;whiteSpace=wrap;html=1;" parent="WIyWlLk6GJQsqaUBKTNV-1" vertex="1">
          <mxGeometry x="670" y="204" width="120" height="60" as="geometry" />
        </mxCell>
        <mxCell id="htsdz4aEK9-7NVSgiyC0-53" style="edgeStyle=orthogonalEdgeStyle;rounded=0;orthogonalLoop=1;jettySize=auto;html=1;exitX=0.5;exitY=1;exitDx=0;exitDy=0;entryX=1;entryY=0.5;entryDx=0;entryDy=0;" parent="WIyWlLk6GJQsqaUBKTNV-1" source="htsdz4aEK9-7NVSgiyC0-51" target="htsdz4aEK9-7NVSgiyC0-27" edge="1">
          <mxGeometry relative="1" as="geometry" />
        </mxCell>
        <mxCell id="htsdz4aEK9-7NVSgiyC0-54" value="No" style="edgeLabel;html=1;align=center;verticalAlign=middle;resizable=0;points=[];" parent="htsdz4aEK9-7NVSgiyC0-53" vertex="1" connectable="0">
          <mxGeometry x="-0.8423" y="1" relative="1" as="geometry">
            <mxPoint as="offset" />
          </mxGeometry>
        </mxCell>
        <mxCell id="htsdz4aEK9-7NVSgiyC0-73" style="edgeStyle=orthogonalEdgeStyle;rounded=0;orthogonalLoop=1;jettySize=auto;html=1;exitX=1;exitY=0.5;exitDx=0;exitDy=0;entryX=0;entryY=0.5;entryDx=0;entryDy=0;" parent="WIyWlLk6GJQsqaUBKTNV-1" source="htsdz4aEK9-7NVSgiyC0-51" target="htsdz4aEK9-7NVSgiyC0-56" edge="1">
          <mxGeometry relative="1" as="geometry">
            <Array as="points">
              <mxPoint x="800" y="336" />
              <mxPoint x="800" y="109" />
            </Array>
          </mxGeometry>
        </mxCell>
        <mxCell id="htsdz4aEK9-7NVSgiyC0-74" value="Yes" style="edgeLabel;html=1;align=center;verticalAlign=middle;resizable=0;points=[];" parent="htsdz4aEK9-7NVSgiyC0-73" vertex="1" connectable="0">
          <mxGeometry x="-0.8729" y="-2" relative="1" as="geometry">
            <mxPoint x="-4" y="-2" as="offset" />
          </mxGeometry>
        </mxCell>
        <mxCell id="htsdz4aEK9-7NVSgiyC0-51" value="Download Successful" style="rhombus;whiteSpace=wrap;html=1;" parent="WIyWlLk6GJQsqaUBKTNV-1" vertex="1">
          <mxGeometry x="690" y="296" width="80" height="80" as="geometry" />
        </mxCell>
        <mxCell id="htsdz4aEK9-7NVSgiyC0-59" value="" style="edgeStyle=orthogonalEdgeStyle;rounded=0;orthogonalLoop=1;jettySize=auto;html=1;" parent="WIyWlLk6GJQsqaUBKTNV-1" source="htsdz4aEK9-7NVSgiyC0-56" target="htsdz4aEK9-7NVSgiyC0-58" edge="1">
          <mxGeometry relative="1" as="geometry" />
        </mxCell>
        <mxCell id="htsdz4aEK9-7NVSgiyC0-56" value="Extract Settings from Config file into a Dictionary" style="rounded=0;whiteSpace=wrap;html=1;" parent="WIyWlLk6GJQsqaUBKTNV-1" vertex="1">
          <mxGeometry x="820" y="79" width="120" height="60" as="geometry" />
        </mxCell>
        <mxCell id="htsdz4aEK9-7NVSgiyC0-61" value="" style="edgeStyle=orthogonalEdgeStyle;rounded=0;orthogonalLoop=1;jettySize=auto;html=1;" parent="WIyWlLk6GJQsqaUBKTNV-1" source="htsdz4aEK9-7NVSgiyC0-58" target="htsdz4aEK9-7NVSgiyC0-60" edge="1">
          <mxGeometry relative="1" as="geometry" />
        </mxCell>
        <mxCell id="htsdz4aEK9-7NVSgiyC0-62" value="is True" style="edgeLabel;html=1;align=center;verticalAlign=middle;resizable=0;points=[];" parent="htsdz4aEK9-7NVSgiyC0-61" vertex="1" connectable="0">
          <mxGeometry x="-0.2" y="2" relative="1" as="geometry">
            <mxPoint as="offset" />
          </mxGeometry>
        </mxCell>
        <mxCell id="htsdz4aEK9-7NVSgiyC0-64" value="" style="edgeStyle=orthogonalEdgeStyle;rounded=0;orthogonalLoop=1;jettySize=auto;html=1;" parent="WIyWlLk6GJQsqaUBKTNV-1" source="htsdz4aEK9-7NVSgiyC0-58" target="htsdz4aEK9-7NVSgiyC0-63" edge="1">
          <mxGeometry relative="1" as="geometry" />
        </mxCell>
        <mxCell id="htsdz4aEK9-7NVSgiyC0-65" value="is False" style="edgeLabel;html=1;align=center;verticalAlign=middle;resizable=0;points=[];" parent="htsdz4aEK9-7NVSgiyC0-64" vertex="1" connectable="0">
          <mxGeometry x="-0.1475" y="-2" relative="1" as="geometry">
            <mxPoint x="-2" as="offset" />
          </mxGeometry>
        </mxCell>
        <mxCell id="htsdz4aEK9-7NVSgiyC0-58" value="If RPA Challenge Flag" style="rhombus;whiteSpace=wrap;html=1;" parent="WIyWlLk6GJQsqaUBKTNV-1" vertex="1">
          <mxGeometry x="980" y="69" width="80" height="80" as="geometry" />
        </mxCell>
        <mxCell id="htsdz4aEK9-7NVSgiyC0-66" style="edgeStyle=orthogonalEdgeStyle;rounded=0;orthogonalLoop=1;jettySize=auto;html=1;exitX=1;exitY=0.5;exitDx=0;exitDy=0;entryX=0.25;entryY=1;entryDx=0;entryDy=0;" parent="WIyWlLk6GJQsqaUBKTNV-1" source="htsdz4aEK9-7NVSgiyC0-60" target="htsdz4aEK9-7NVSgiyC0-63" edge="1">
          <mxGeometry relative="1" as="geometry" />
        </mxCell>
        <mxCell id="htsdz4aEK9-7NVSgiyC0-60" value="Initialize Browser" style="rounded=0;whiteSpace=wrap;html=1;" parent="WIyWlLk6GJQsqaUBKTNV-1" vertex="1">
          <mxGeometry x="960" y="189" width="120" height="60" as="geometry" />
        </mxCell>
        <mxCell id="htsdz4aEK9-7NVSgiyC0-68" value="" style="edgeStyle=orthogonalEdgeStyle;rounded=0;orthogonalLoop=1;jettySize=auto;html=1;" parent="WIyWlLk6GJQsqaUBKTNV-1" source="htsdz4aEK9-7NVSgiyC0-63" target="htsdz4aEK9-7NVSgiyC0-67" edge="1">
          <mxGeometry relative="1" as="geometry" />
        </mxCell>
        <mxCell id="htsdz4aEK9-7NVSgiyC0-63" value="Read a User Access Request in Inbox" style="rounded=0;whiteSpace=wrap;html=1;" parent="WIyWlLk6GJQsqaUBKTNV-1" vertex="1">
          <mxGeometry x="1121" y="79" width="120" height="60" as="geometry" />
        </mxCell>
        <mxCell id="htsdz4aEK9-7NVSgiyC0-70" value="" style="edgeStyle=orthogonalEdgeStyle;rounded=0;orthogonalLoop=1;jettySize=auto;html=1;" parent="WIyWlLk6GJQsqaUBKTNV-1" source="htsdz4aEK9-7NVSgiyC0-67" target="htsdz4aEK9-7NVSgiyC0-69" edge="1">
          <mxGeometry relative="1" as="geometry" />
        </mxCell>
        <mxCell id="htsdz4aEK9-7NVSgiyC0-71" value="is True" style="edgeLabel;html=1;align=center;verticalAlign=middle;resizable=0;points=[];" parent="htsdz4aEK9-7NVSgiyC0-70" vertex="1" connectable="0">
          <mxGeometry x="-0.12" relative="1" as="geometry">
            <mxPoint as="offset" />
          </mxGeometry>
        </mxCell>
        <mxCell id="htsdz4aEK9-7NVSgiyC0-75" value="" style="edgeStyle=orthogonalEdgeStyle;rounded=0;orthogonalLoop=1;jettySize=auto;html=1;" parent="WIyWlLk6GJQsqaUBKTNV-1" source="htsdz4aEK9-7NVSgiyC0-67" target="htsdz4aEK9-7NVSgiyC0-72" edge="1">
          <mxGeometry relative="1" as="geometry" />
        </mxCell>
        <mxCell id="htsdz4aEK9-7NVSgiyC0-76" value="is False" style="edgeLabel;html=1;align=center;verticalAlign=middle;resizable=0;points=[];" parent="htsdz4aEK9-7NVSgiyC0-75" vertex="1" connectable="0">
          <mxGeometry x="-0.1" y="-2" relative="1" as="geometry">
            <mxPoint x="-10" y="-3" as="offset" />
          </mxGeometry>
        </mxCell>
        <mxCell id="htsdz4aEK9-7NVSgiyC0-67" value="If&amp;nbsp;&lt;span style=&quot;background-color: initial;&quot;&gt;Download Email Flag&lt;/span&gt;" style="rhombus;whiteSpace=wrap;html=1;" parent="WIyWlLk6GJQsqaUBKTNV-1" vertex="1">
          <mxGeometry x="1280" y="69" width="80" height="80" as="geometry" />
        </mxCell>
        <mxCell id="htsdz4aEK9-7NVSgiyC0-81" style="edgeStyle=orthogonalEdgeStyle;rounded=0;orthogonalLoop=1;jettySize=auto;html=1;exitX=1;exitY=0.5;exitDx=0;exitDy=0;entryX=0;entryY=0.5;entryDx=0;entryDy=0;" parent="WIyWlLk6GJQsqaUBKTNV-1" source="htsdz4aEK9-7NVSgiyC0-69" target="htsdz4aEK9-7NVSgiyC0-72" edge="1">
          <mxGeometry relative="1" as="geometry">
            <Array as="points">
              <mxPoint x="1400" y="219" />
              <mxPoint x="1400" y="109" />
            </Array>
          </mxGeometry>
        </mxCell>
        <mxCell id="htsdz4aEK9-7NVSgiyC0-69" value="Download Email to ProcessedEmails folder" style="rounded=0;whiteSpace=wrap;html=1;" parent="WIyWlLk6GJQsqaUBKTNV-1" vertex="1">
          <mxGeometry x="1260" y="189" width="120" height="60" as="geometry" />
        </mxCell>
        <mxCell id="htsdz4aEK9-7NVSgiyC0-82" style="edgeStyle=orthogonalEdgeStyle;rounded=0;orthogonalLoop=1;jettySize=auto;html=1;exitX=0.5;exitY=1;exitDx=0;exitDy=0;entryX=0.5;entryY=0;entryDx=0;entryDy=0;" parent="WIyWlLk6GJQsqaUBKTNV-1" source="htsdz4aEK9-7NVSgiyC0-72" target="htsdz4aEK9-7NVSgiyC0-79" edge="1">
          <mxGeometry relative="1" as="geometry" />
        </mxCell>
        <mxCell id="1reo4kSoKwoTpZswy6ko-28" value="False" style="edgeLabel;html=1;align=center;verticalAlign=middle;resizable=0;points=[];" vertex="1" connectable="0" parent="htsdz4aEK9-7NVSgiyC0-82">
          <mxGeometry x="-0.1709" y="-1" relative="1" as="geometry">
            <mxPoint as="offset" />
          </mxGeometry>
        </mxCell>
        <mxCell id="htsdz4aEK9-7NVSgiyC0-90" value="" style="edgeStyle=orthogonalEdgeStyle;rounded=0;orthogonalLoop=1;jettySize=auto;html=1;" parent="WIyWlLk6GJQsqaUBKTNV-1" source="htsdz4aEK9-7NVSgiyC0-72" target="htsdz4aEK9-7NVSgiyC0-87" edge="1">
          <mxGeometry relative="1" as="geometry" />
        </mxCell>
        <mxCell id="1reo4kSoKwoTpZswy6ko-27" value="True" style="edgeLabel;html=1;align=center;verticalAlign=middle;resizable=0;points=[];" vertex="1" connectable="0" parent="htsdz4aEK9-7NVSgiyC0-90">
          <mxGeometry x="-0.1643" y="-3" relative="1" as="geometry">
            <mxPoint y="-2" as="offset" />
          </mxGeometry>
        </mxCell>
        <mxCell id="htsdz4aEK9-7NVSgiyC0-72" value="Email has attachments" style="rhombus;whiteSpace=wrap;html=1;" parent="WIyWlLk6GJQsqaUBKTNV-1" vertex="1">
          <mxGeometry x="1427" y="69" width="80" height="80" as="geometry" />
        </mxCell>
        <mxCell id="htsdz4aEK9-7NVSgiyC0-83" value="" style="edgeStyle=orthogonalEdgeStyle;rounded=0;orthogonalLoop=1;jettySize=auto;html=1;" parent="WIyWlLk6GJQsqaUBKTNV-1" source="htsdz4aEK9-7NVSgiyC0-79" target="htsdz4aEK9-7NVSgiyC0-80" edge="1">
          <mxGeometry relative="1" as="geometry" />
        </mxCell>
        <mxCell id="htsdz4aEK9-7NVSgiyC0-79" value="Throw Business Exception" style="rounded=0;whiteSpace=wrap;html=1;fillColor=#f8cecc;strokeColor=#b85450;fontColor=#ff0000;" parent="WIyWlLk6GJQsqaUBKTNV-1" vertex="1">
          <mxGeometry x="1407" y="189" width="120" height="40" as="geometry" />
        </mxCell>
        <mxCell id="htsdz4aEK9-7NVSgiyC0-86" value="" style="edgeStyle=orthogonalEdgeStyle;rounded=0;orthogonalLoop=1;jettySize=auto;html=1;" parent="WIyWlLk6GJQsqaUBKTNV-1" source="htsdz4aEK9-7NVSgiyC0-80" target="htsdz4aEK9-7NVSgiyC0-85" edge="1">
          <mxGeometry relative="1" as="geometry" />
        </mxCell>
        <mxCell id="htsdz4aEK9-7NVSgiyC0-80" value="Generate Active Log, Add Transaction to Active Log, Append Active Log to Transaction Log file" style="rounded=0;whiteSpace=wrap;html=1;" parent="WIyWlLk6GJQsqaUBKTNV-1" vertex="1">
          <mxGeometry x="1407" y="273" width="120" height="70" as="geometry" />
        </mxCell>
        <mxCell id="htsdz4aEK9-7NVSgiyC0-97" value="" style="edgeStyle=orthogonalEdgeStyle;rounded=0;orthogonalLoop=1;jettySize=auto;html=1;" parent="WIyWlLk6GJQsqaUBKTNV-1" source="htsdz4aEK9-7NVSgiyC0-85" target="htsdz4aEK9-7NVSgiyC0-96" edge="1">
          <mxGeometry relative="1" as="geometry" />
        </mxCell>
        <mxCell id="htsdz4aEK9-7NVSgiyC0-85" value="Move Email to Config Defined Folder" style="rounded=0;whiteSpace=wrap;html=1;" parent="WIyWlLk6GJQsqaUBKTNV-1" vertex="1">
          <mxGeometry x="1407" y="366" width="120" height="60" as="geometry" />
        </mxCell>
        <mxCell id="htsdz4aEK9-7NVSgiyC0-93" value="" style="edgeStyle=orthogonalEdgeStyle;rounded=0;orthogonalLoop=1;jettySize=auto;html=1;entryX=0;entryY=0.5;entryDx=0;entryDy=0;" parent="WIyWlLk6GJQsqaUBKTNV-1" source="htsdz4aEK9-7NVSgiyC0-87" target="1reo4kSoKwoTpZswy6ko-14" edge="1">
          <mxGeometry relative="1" as="geometry">
            <mxPoint x="1715" y="109.00000000000011" as="targetPoint" />
          </mxGeometry>
        </mxCell>
        <mxCell id="htsdz4aEK9-7NVSgiyC0-87" value="Save Attachments to Temporary folder" style="rounded=0;whiteSpace=wrap;html=1;" parent="WIyWlLk6GJQsqaUBKTNV-1" vertex="1">
          <mxGeometry x="1561" y="79" width="120" height="60" as="geometry" />
        </mxCell>
        <mxCell id="1reo4kSoKwoTpZswy6ko-6" value="" style="edgeStyle=orthogonalEdgeStyle;rounded=0;orthogonalLoop=1;jettySize=auto;html=1;exitX=1;exitY=0.5;exitDx=0;exitDy=0;" edge="1" parent="WIyWlLk6GJQsqaUBKTNV-1" source="1reo4kSoKwoTpZswy6ko-12" target="1reo4kSoKwoTpZswy6ko-3">
          <mxGeometry relative="1" as="geometry">
            <mxPoint x="1835" y="109.00000000000011" as="sourcePoint" />
          </mxGeometry>
        </mxCell>
        <mxCell id="htsdz4aEK9-7NVSgiyC0-98" style="edgeStyle=orthogonalEdgeStyle;rounded=0;orthogonalLoop=1;jettySize=auto;html=1;exitX=0;exitY=0.5;exitDx=0;exitDy=0;entryX=0.75;entryY=1;entryDx=0;entryDy=0;" parent="WIyWlLk6GJQsqaUBKTNV-1" source="htsdz4aEK9-7NVSgiyC0-96" target="htsdz4aEK9-7NVSgiyC0-63" edge="1">
          <mxGeometry relative="1" as="geometry" />
        </mxCell>
        <mxCell id="htsdz4aEK9-7NVSgiyC0-99" value="Yes" style="edgeLabel;html=1;align=center;verticalAlign=middle;resizable=0;points=[];" parent="htsdz4aEK9-7NVSgiyC0-98" vertex="1" connectable="0">
          <mxGeometry x="-0.9033" y="1" relative="1" as="geometry">
            <mxPoint as="offset" />
          </mxGeometry>
        </mxCell>
        <mxCell id="1reo4kSoKwoTpZswy6ko-0" style="edgeStyle=orthogonalEdgeStyle;rounded=0;orthogonalLoop=1;jettySize=auto;html=1;exitX=0.5;exitY=1;exitDx=0;exitDy=0;entryX=1;entryY=0.25;entryDx=0;entryDy=0;" edge="1" parent="WIyWlLk6GJQsqaUBKTNV-1" source="htsdz4aEK9-7NVSgiyC0-96" target="htsdz4aEK9-7NVSgiyC0-3">
          <mxGeometry relative="1" as="geometry" />
        </mxCell>
        <mxCell id="1reo4kSoKwoTpZswy6ko-1" value="No" style="edgeLabel;html=1;align=center;verticalAlign=middle;resizable=0;points=[];" vertex="1" connectable="0" parent="1reo4kSoKwoTpZswy6ko-0">
          <mxGeometry x="-0.9126" y="1" relative="1" as="geometry">
            <mxPoint as="offset" />
          </mxGeometry>
        </mxCell>
        <mxCell id="htsdz4aEK9-7NVSgiyC0-96" value="More User Access Requests left?" style="rhombus;whiteSpace=wrap;html=1;labelBackgroundColor=default;labelBorderColor=none;" parent="WIyWlLk6GJQsqaUBKTNV-1" vertex="1">
          <mxGeometry x="1427" y="446" width="80" height="80" as="geometry" />
        </mxCell>
        <mxCell id="1reo4kSoKwoTpZswy6ko-5" value="" style="edgeStyle=orthogonalEdgeStyle;rounded=0;orthogonalLoop=1;jettySize=auto;html=1;entryX=0;entryY=0.5;entryDx=0;entryDy=0;" edge="1" parent="WIyWlLk6GJQsqaUBKTNV-1" source="1reo4kSoKwoTpZswy6ko-3" target="1reo4kSoKwoTpZswy6ko-74">
          <mxGeometry relative="1" as="geometry">
            <mxPoint x="2120" y="110" as="targetPoint" />
          </mxGeometry>
        </mxCell>
        <mxCell id="1reo4kSoKwoTpZswy6ko-7" value="True" style="edgeLabel;html=1;align=center;verticalAlign=middle;resizable=0;points=[];" vertex="1" connectable="0" parent="1reo4kSoKwoTpZswy6ko-5">
          <mxGeometry x="-0.0725" relative="1" as="geometry">
            <mxPoint as="offset" />
          </mxGeometry>
        </mxCell>
        <mxCell id="1reo4kSoKwoTpZswy6ko-18" value="" style="edgeStyle=orthogonalEdgeStyle;rounded=0;orthogonalLoop=1;jettySize=auto;html=1;" edge="1" parent="WIyWlLk6GJQsqaUBKTNV-1" source="1reo4kSoKwoTpZswy6ko-3" target="1reo4kSoKwoTpZswy6ko-10">
          <mxGeometry relative="1" as="geometry" />
        </mxCell>
        <mxCell id="1reo4kSoKwoTpZswy6ko-19" value="False" style="edgeLabel;html=1;align=center;verticalAlign=middle;resizable=0;points=[];" vertex="1" connectable="0" parent="1reo4kSoKwoTpZswy6ko-18">
          <mxGeometry x="-0.2826" y="-3" relative="1" as="geometry">
            <mxPoint as="offset" />
          </mxGeometry>
        </mxCell>
        <mxCell id="1reo4kSoKwoTpZswy6ko-3" value="If&amp;nbsp;&lt;span style=&quot;background-color: initial;&quot;&gt;Attachment is an xlsx file&lt;/span&gt;" style="rhombus;whiteSpace=wrap;html=1;" vertex="1" parent="WIyWlLk6GJQsqaUBKTNV-1">
          <mxGeometry x="2008" y="69" width="80" height="80" as="geometry" />
        </mxCell>
        <mxCell id="1reo4kSoKwoTpZswy6ko-13" value="" style="edgeStyle=orthogonalEdgeStyle;rounded=0;orthogonalLoop=1;jettySize=auto;html=1;" edge="1" parent="WIyWlLk6GJQsqaUBKTNV-1" source="1reo4kSoKwoTpZswy6ko-10" target="1reo4kSoKwoTpZswy6ko-11">
          <mxGeometry relative="1" as="geometry" />
        </mxCell>
        <mxCell id="1reo4kSoKwoTpZswy6ko-10" value="Throw Business Exception" style="rounded=0;whiteSpace=wrap;html=1;fillColor=#f8cecc;strokeColor=#b85450;fontColor=#ff0000;" vertex="1" parent="WIyWlLk6GJQsqaUBKTNV-1">
          <mxGeometry x="1988" y="184" width="120" height="44" as="geometry" />
        </mxCell>
        <mxCell id="1reo4kSoKwoTpZswy6ko-71" style="edgeStyle=orthogonalEdgeStyle;rounded=0;orthogonalLoop=1;jettySize=auto;html=1;exitX=0.5;exitY=1;exitDx=0;exitDy=0;entryX=0.5;entryY=0;entryDx=0;entryDy=0;" edge="1" parent="WIyWlLk6GJQsqaUBKTNV-1" source="1reo4kSoKwoTpZswy6ko-11" target="1reo4kSoKwoTpZswy6ko-70">
          <mxGeometry relative="1" as="geometry" />
        </mxCell>
        <mxCell id="1reo4kSoKwoTpZswy6ko-11" value="Add Transaction to Active Log" style="rounded=0;whiteSpace=wrap;html=1;" vertex="1" parent="WIyWlLk6GJQsqaUBKTNV-1">
          <mxGeometry x="1988" y="243" width="120" height="45" as="geometry" />
        </mxCell>
        <mxCell id="1reo4kSoKwoTpZswy6ko-12" value="Generate Active Log" style="rounded=0;whiteSpace=wrap;html=1;" vertex="1" parent="WIyWlLk6GJQsqaUBKTNV-1">
          <mxGeometry x="1859" y="79" width="120" height="60" as="geometry" />
        </mxCell>
        <mxCell id="1reo4kSoKwoTpZswy6ko-17" value="" style="edgeStyle=orthogonalEdgeStyle;rounded=0;orthogonalLoop=1;jettySize=auto;html=1;" edge="1" parent="WIyWlLk6GJQsqaUBKTNV-1" source="1reo4kSoKwoTpZswy6ko-14" target="1reo4kSoKwoTpZswy6ko-12">
          <mxGeometry relative="1" as="geometry" />
        </mxCell>
        <mxCell id="1reo4kSoKwoTpZswy6ko-14" value="Process Attachment from Temporary folder" style="rounded=0;whiteSpace=wrap;html=1;" vertex="1" parent="WIyWlLk6GJQsqaUBKTNV-1">
          <mxGeometry x="1713" y="79" width="120" height="60" as="geometry" />
        </mxCell>
        <mxCell id="1reo4kSoKwoTpZswy6ko-22" style="edgeStyle=orthogonalEdgeStyle;rounded=0;orthogonalLoop=1;jettySize=auto;html=1;exitX=0;exitY=0.5;exitDx=0;exitDy=0;entryX=0.5;entryY=1;entryDx=0;entryDy=0;" edge="1" parent="WIyWlLk6GJQsqaUBKTNV-1" source="1reo4kSoKwoTpZswy6ko-20" target="1reo4kSoKwoTpZswy6ko-14">
          <mxGeometry relative="1" as="geometry" />
        </mxCell>
        <mxCell id="1reo4kSoKwoTpZswy6ko-24" value="True" style="edgeLabel;html=1;align=center;verticalAlign=middle;resizable=0;points=[];" vertex="1" connectable="0" parent="1reo4kSoKwoTpZswy6ko-22">
          <mxGeometry x="-0.9028" relative="1" as="geometry">
            <mxPoint as="offset" />
          </mxGeometry>
        </mxCell>
        <mxCell id="1reo4kSoKwoTpZswy6ko-23" style="edgeStyle=orthogonalEdgeStyle;rounded=0;orthogonalLoop=1;jettySize=auto;html=1;exitX=0.5;exitY=1;exitDx=0;exitDy=0;entryX=1;entryY=0.5;entryDx=0;entryDy=0;" edge="1" parent="WIyWlLk6GJQsqaUBKTNV-1" source="1reo4kSoKwoTpZswy6ko-20" target="htsdz4aEK9-7NVSgiyC0-96">
          <mxGeometry relative="1" as="geometry" />
        </mxCell>
        <mxCell id="1reo4kSoKwoTpZswy6ko-25" value="False" style="edgeLabel;html=1;align=center;verticalAlign=middle;resizable=0;points=[];" vertex="1" connectable="0" parent="1reo4kSoKwoTpZswy6ko-23">
          <mxGeometry x="-0.9249" y="-1" relative="1" as="geometry">
            <mxPoint y="-10" as="offset" />
          </mxGeometry>
        </mxCell>
        <mxCell id="1reo4kSoKwoTpZswy6ko-20" value="More Attachments left?" style="rhombus;whiteSpace=wrap;html=1;labelBackgroundColor=default;labelBorderColor=none;" vertex="1" parent="WIyWlLk6GJQsqaUBKTNV-1">
          <mxGeometry x="2008" y="379" width="80" height="80" as="geometry" />
        </mxCell>
        <mxCell id="1reo4kSoKwoTpZswy6ko-40" value="" style="edgeStyle=orthogonalEdgeStyle;rounded=0;orthogonalLoop=1;jettySize=auto;html=1;" edge="1" parent="WIyWlLk6GJQsqaUBKTNV-1" source="1reo4kSoKwoTpZswy6ko-35" target="1reo4kSoKwoTpZswy6ko-39">
          <mxGeometry relative="1" as="geometry" />
        </mxCell>
        <mxCell id="1reo4kSoKwoTpZswy6ko-42" value="False" style="edgeLabel;html=1;align=center;verticalAlign=middle;resizable=0;points=[];" vertex="1" connectable="0" parent="1reo4kSoKwoTpZswy6ko-40">
          <mxGeometry x="0.1249" y="-2" relative="1" as="geometry">
            <mxPoint as="offset" />
          </mxGeometry>
        </mxCell>
        <mxCell id="1reo4kSoKwoTpZswy6ko-35" value="Header Format is Valid" style="rhombus;whiteSpace=wrap;html=1;" vertex="1" parent="WIyWlLk6GJQsqaUBKTNV-1">
          <mxGeometry x="2275" y="69" width="80" height="80" as="geometry" />
        </mxCell>
        <mxCell id="1reo4kSoKwoTpZswy6ko-41" style="edgeStyle=orthogonalEdgeStyle;rounded=0;orthogonalLoop=1;jettySize=auto;html=1;exitX=0.5;exitY=1;exitDx=0;exitDy=0;entryX=1;entryY=0.5;entryDx=0;entryDy=0;" edge="1" parent="WIyWlLk6GJQsqaUBKTNV-1" source="1reo4kSoKwoTpZswy6ko-39" target="1reo4kSoKwoTpZswy6ko-11">
          <mxGeometry relative="1" as="geometry" />
        </mxCell>
        <mxCell id="1reo4kSoKwoTpZswy6ko-39" value="Throw Business Exception" style="rounded=0;whiteSpace=wrap;html=1;fillColor=#f8cecc;strokeColor=#b85450;fontColor=#ff0000;" vertex="1" parent="WIyWlLk6GJQsqaUBKTNV-1">
          <mxGeometry x="2255" y="184" width="120" height="44" as="geometry" />
        </mxCell>
        <mxCell id="1reo4kSoKwoTpZswy6ko-47" value="" style="edgeStyle=orthogonalEdgeStyle;rounded=0;orthogonalLoop=1;jettySize=auto;html=1;" edge="1" parent="WIyWlLk6GJQsqaUBKTNV-1" source="1reo4kSoKwoTpZswy6ko-45" target="1reo4kSoKwoTpZswy6ko-46">
          <mxGeometry relative="1" as="geometry" />
        </mxCell>
        <mxCell id="1reo4kSoKwoTpZswy6ko-45" value="Process Data Row" style="rounded=0;whiteSpace=wrap;html=1;" vertex="1" parent="WIyWlLk6GJQsqaUBKTNV-1">
          <mxGeometry x="1503" y="810" width="120" height="60" as="geometry" />
        </mxCell>
        <mxCell id="1reo4kSoKwoTpZswy6ko-50" style="edgeStyle=orthogonalEdgeStyle;rounded=0;orthogonalLoop=1;jettySize=auto;html=1;exitX=0.5;exitY=0;exitDx=0;exitDy=0;entryX=0.5;entryY=1;entryDx=0;entryDy=0;" edge="1" parent="WIyWlLk6GJQsqaUBKTNV-1" source="1reo4kSoKwoTpZswy6ko-46" target="1reo4kSoKwoTpZswy6ko-48">
          <mxGeometry relative="1" as="geometry" />
        </mxCell>
        <mxCell id="1reo4kSoKwoTpZswy6ko-58" value="False" style="edgeLabel;html=1;align=center;verticalAlign=middle;resizable=0;points=[];" vertex="1" connectable="0" parent="1reo4kSoKwoTpZswy6ko-50">
          <mxGeometry x="-0.1115" y="-2" relative="1" as="geometry">
            <mxPoint as="offset" />
          </mxGeometry>
        </mxCell>
        <mxCell id="1reo4kSoKwoTpZswy6ko-60" value="" style="edgeStyle=orthogonalEdgeStyle;rounded=0;orthogonalLoop=1;jettySize=auto;html=1;" edge="1" parent="WIyWlLk6GJQsqaUBKTNV-1" source="1reo4kSoKwoTpZswy6ko-46" target="1reo4kSoKwoTpZswy6ko-59">
          <mxGeometry relative="1" as="geometry" />
        </mxCell>
        <mxCell id="1reo4kSoKwoTpZswy6ko-61" value="True" style="edgeLabel;html=1;align=center;verticalAlign=middle;resizable=0;points=[];" vertex="1" connectable="0" parent="1reo4kSoKwoTpZswy6ko-60">
          <mxGeometry x="-0.2432" relative="1" as="geometry">
            <mxPoint as="offset" />
          </mxGeometry>
        </mxCell>
        <mxCell id="1reo4kSoKwoTpZswy6ko-46" value="Is&amp;nbsp;&lt;div&gt;Clearance Valid&lt;/div&gt;" style="rhombus;whiteSpace=wrap;html=1;" vertex="1" parent="WIyWlLk6GJQsqaUBKTNV-1">
          <mxGeometry x="1683" y="800" width="80" height="80" as="geometry" />
        </mxCell>
        <mxCell id="1reo4kSoKwoTpZswy6ko-53" value="" style="edgeStyle=orthogonalEdgeStyle;rounded=0;orthogonalLoop=1;jettySize=auto;html=1;" edge="1" parent="WIyWlLk6GJQsqaUBKTNV-1" source="1reo4kSoKwoTpZswy6ko-48" target="1reo4kSoKwoTpZswy6ko-52">
          <mxGeometry relative="1" as="geometry" />
        </mxCell>
        <mxCell id="1reo4kSoKwoTpZswy6ko-48" value="Throw Business Exception" style="rounded=0;whiteSpace=wrap;html=1;fillColor=#f8cecc;strokeColor=#b85450;fontColor=#ff0000;" vertex="1" parent="WIyWlLk6GJQsqaUBKTNV-1">
          <mxGeometry x="1663" y="710" width="120" height="44" as="geometry" />
        </mxCell>
        <mxCell id="1reo4kSoKwoTpZswy6ko-55" style="edgeStyle=orthogonalEdgeStyle;rounded=0;orthogonalLoop=1;jettySize=auto;html=1;exitX=0.5;exitY=0;exitDx=0;exitDy=0;entryX=1;entryY=0.5;entryDx=0;entryDy=0;" edge="1" parent="WIyWlLk6GJQsqaUBKTNV-1" source="1reo4kSoKwoTpZswy6ko-49" target="1reo4kSoKwoTpZswy6ko-20">
          <mxGeometry relative="1" as="geometry">
            <Array as="points">
              <mxPoint x="1723" y="510" />
              <mxPoint x="2108" y="510" />
              <mxPoint x="2108" y="419" />
            </Array>
          </mxGeometry>
        </mxCell>
        <mxCell id="1reo4kSoKwoTpZswy6ko-56" value="False" style="edgeLabel;html=1;align=center;verticalAlign=middle;resizable=0;points=[];" vertex="1" connectable="0" parent="1reo4kSoKwoTpZswy6ko-55">
          <mxGeometry x="-0.8905" y="-3" relative="1" as="geometry">
            <mxPoint x="-4" y="12" as="offset" />
          </mxGeometry>
        </mxCell>
        <mxCell id="1reo4kSoKwoTpZswy6ko-57" style="edgeStyle=orthogonalEdgeStyle;rounded=0;orthogonalLoop=1;jettySize=auto;html=1;exitX=0;exitY=0.5;exitDx=0;exitDy=0;entryX=0.5;entryY=0;entryDx=0;entryDy=0;" edge="1" parent="WIyWlLk6GJQsqaUBKTNV-1" source="1reo4kSoKwoTpZswy6ko-49" target="1reo4kSoKwoTpZswy6ko-45">
          <mxGeometry relative="1" as="geometry" />
        </mxCell>
        <mxCell id="1reo4kSoKwoTpZswy6ko-101" value="True" style="edgeLabel;html=1;align=center;verticalAlign=middle;resizable=0;points=[];" vertex="1" connectable="0" parent="1reo4kSoKwoTpZswy6ko-57">
          <mxGeometry x="-0.8957" y="-1" relative="1" as="geometry">
            <mxPoint as="offset" />
          </mxGeometry>
        </mxCell>
        <mxCell id="1reo4kSoKwoTpZswy6ko-49" value="More Data Rows left?" style="rhombus;whiteSpace=wrap;html=1;labelBackgroundColor=default;labelBorderColor=none;" vertex="1" parent="WIyWlLk6GJQsqaUBKTNV-1">
          <mxGeometry x="1683" y="549" width="80" height="80" as="geometry" />
        </mxCell>
        <mxCell id="1reo4kSoKwoTpZswy6ko-54" value="" style="edgeStyle=orthogonalEdgeStyle;rounded=0;orthogonalLoop=1;jettySize=auto;html=1;" edge="1" parent="WIyWlLk6GJQsqaUBKTNV-1" source="1reo4kSoKwoTpZswy6ko-52" target="1reo4kSoKwoTpZswy6ko-49">
          <mxGeometry relative="1" as="geometry" />
        </mxCell>
        <mxCell id="1reo4kSoKwoTpZswy6ko-52" value="Add Transaction to Active Log" style="rounded=0;whiteSpace=wrap;html=1;" vertex="1" parent="WIyWlLk6GJQsqaUBKTNV-1">
          <mxGeometry x="1663" y="650" width="120" height="45" as="geometry" />
        </mxCell>
        <mxCell id="1reo4kSoKwoTpZswy6ko-63" style="edgeStyle=orthogonalEdgeStyle;rounded=0;orthogonalLoop=1;jettySize=auto;html=1;exitX=0.5;exitY=0;exitDx=0;exitDy=0;entryX=1;entryY=0.5;entryDx=0;entryDy=0;" edge="1" parent="WIyWlLk6GJQsqaUBKTNV-1" source="1reo4kSoKwoTpZswy6ko-59" target="1reo4kSoKwoTpZswy6ko-48">
          <mxGeometry relative="1" as="geometry" />
        </mxCell>
        <mxCell id="1reo4kSoKwoTpZswy6ko-64" value="False" style="edgeLabel;html=1;align=center;verticalAlign=middle;resizable=0;points=[];" vertex="1" connectable="0" parent="1reo4kSoKwoTpZswy6ko-63">
          <mxGeometry x="-0.6265" relative="1" as="geometry">
            <mxPoint y="4" as="offset" />
          </mxGeometry>
        </mxCell>
        <mxCell id="1reo4kSoKwoTpZswy6ko-66" value="" style="edgeStyle=orthogonalEdgeStyle;rounded=0;orthogonalLoop=1;jettySize=auto;html=1;" edge="1" parent="WIyWlLk6GJQsqaUBKTNV-1" source="1reo4kSoKwoTpZswy6ko-59" target="1reo4kSoKwoTpZswy6ko-65">
          <mxGeometry relative="1" as="geometry" />
        </mxCell>
        <mxCell id="1reo4kSoKwoTpZswy6ko-67" value="True" style="edgeLabel;html=1;align=center;verticalAlign=middle;resizable=0;points=[];" vertex="1" connectable="0" parent="1reo4kSoKwoTpZswy6ko-66">
          <mxGeometry x="-0.1531" relative="1" as="geometry">
            <mxPoint as="offset" />
          </mxGeometry>
        </mxCell>
        <mxCell id="1reo4kSoKwoTpZswy6ko-59" value="Is&amp;nbsp;&lt;div&gt;Request Valid?&lt;/div&gt;" style="rhombus;whiteSpace=wrap;html=1;" vertex="1" parent="WIyWlLk6GJQsqaUBKTNV-1">
          <mxGeometry x="1817" y="800" width="80" height="80" as="geometry" />
        </mxCell>
        <mxCell id="1reo4kSoKwoTpZswy6ko-69" style="edgeStyle=orthogonalEdgeStyle;rounded=0;orthogonalLoop=1;jettySize=auto;html=1;exitX=1;exitY=0.5;exitDx=0;exitDy=0;entryX=0;entryY=0.5;entryDx=0;entryDy=0;" edge="1" parent="WIyWlLk6GJQsqaUBKTNV-1" source="1reo4kSoKwoTpZswy6ko-65" target="1reo4kSoKwoTpZswy6ko-68">
          <mxGeometry relative="1" as="geometry" />
        </mxCell>
        <mxCell id="1reo4kSoKwoTpZswy6ko-65" value="Add Transaction to Active Log and Update Master Sheet" style="rounded=0;whiteSpace=wrap;html=1;" vertex="1" parent="WIyWlLk6GJQsqaUBKTNV-1">
          <mxGeometry x="1943" y="810" width="120" height="60" as="geometry" />
        </mxCell>
        <mxCell id="1reo4kSoKwoTpZswy6ko-77" value="" style="edgeStyle=orthogonalEdgeStyle;rounded=0;orthogonalLoop=1;jettySize=auto;html=1;" edge="1" parent="WIyWlLk6GJQsqaUBKTNV-1" source="1reo4kSoKwoTpZswy6ko-68" target="1reo4kSoKwoTpZswy6ko-76">
          <mxGeometry relative="1" as="geometry" />
        </mxCell>
        <mxCell id="1reo4kSoKwoTpZswy6ko-68" value="Delete Attachment from Temporary folder" style="rounded=0;whiteSpace=wrap;html=1;" vertex="1" parent="WIyWlLk6GJQsqaUBKTNV-1">
          <mxGeometry x="2083" y="810" width="120" height="60" as="geometry" />
        </mxCell>
        <mxCell id="1reo4kSoKwoTpZswy6ko-72" style="edgeStyle=orthogonalEdgeStyle;rounded=0;orthogonalLoop=1;jettySize=auto;html=1;exitX=0.5;exitY=1;exitDx=0;exitDy=0;entryX=0.5;entryY=0;entryDx=0;entryDy=0;" edge="1" parent="WIyWlLk6GJQsqaUBKTNV-1" source="1reo4kSoKwoTpZswy6ko-70" target="1reo4kSoKwoTpZswy6ko-20">
          <mxGeometry relative="1" as="geometry" />
        </mxCell>
        <mxCell id="1reo4kSoKwoTpZswy6ko-70" value="Delete Attachment from Temporary folder" style="rounded=0;whiteSpace=wrap;html=1;" vertex="1" parent="WIyWlLk6GJQsqaUBKTNV-1">
          <mxGeometry x="1988" y="303" width="120" height="60" as="geometry" />
        </mxCell>
        <mxCell id="1reo4kSoKwoTpZswy6ko-75" style="edgeStyle=orthogonalEdgeStyle;rounded=0;orthogonalLoop=1;jettySize=auto;html=1;exitX=1;exitY=0.5;exitDx=0;exitDy=0;entryX=0;entryY=0.5;entryDx=0;entryDy=0;" edge="1" parent="WIyWlLk6GJQsqaUBKTNV-1" source="1reo4kSoKwoTpZswy6ko-74" target="1reo4kSoKwoTpZswy6ko-35">
          <mxGeometry relative="1" as="geometry" />
        </mxCell>
        <mxCell id="1reo4kSoKwoTpZswy6ko-74" value="Read Data from Attachment" style="rounded=0;whiteSpace=wrap;html=1;" vertex="1" parent="WIyWlLk6GJQsqaUBKTNV-1">
          <mxGeometry x="2136" y="86.5" width="120" height="45" as="geometry" />
        </mxCell>
        <mxCell id="1reo4kSoKwoTpZswy6ko-81" value="" style="edgeStyle=orthogonalEdgeStyle;rounded=0;orthogonalLoop=1;jettySize=auto;html=1;" edge="1" parent="WIyWlLk6GJQsqaUBKTNV-1" source="1reo4kSoKwoTpZswy6ko-76" target="1reo4kSoKwoTpZswy6ko-80">
          <mxGeometry relative="1" as="geometry" />
        </mxCell>
        <mxCell id="1reo4kSoKwoTpZswy6ko-89" value="Is True" style="edgeLabel;html=1;align=center;verticalAlign=middle;resizable=0;points=[];" vertex="1" connectable="0" parent="1reo4kSoKwoTpZswy6ko-81">
          <mxGeometry x="-0.088" y="1" relative="1" as="geometry">
            <mxPoint as="offset" />
          </mxGeometry>
        </mxCell>
        <mxCell id="1reo4kSoKwoTpZswy6ko-104" style="edgeStyle=orthogonalEdgeStyle;rounded=0;orthogonalLoop=1;jettySize=auto;html=1;exitX=1;exitY=0.5;exitDx=0;exitDy=0;entryX=1;entryY=0.5;entryDx=0;entryDy=0;" edge="1" parent="WIyWlLk6GJQsqaUBKTNV-1" source="1reo4kSoKwoTpZswy6ko-76" target="1reo4kSoKwoTpZswy6ko-90">
          <mxGeometry relative="1" as="geometry">
            <Array as="points">
              <mxPoint x="2350" y="840" />
              <mxPoint x="2350" y="506" />
            </Array>
          </mxGeometry>
        </mxCell>
        <mxCell id="1reo4kSoKwoTpZswy6ko-76" value="If RPA Challenge Flag" style="rhombus;whiteSpace=wrap;html=1;" vertex="1" parent="WIyWlLk6GJQsqaUBKTNV-1">
          <mxGeometry x="2232" y="800" width="80" height="80" as="geometry" />
        </mxCell>
        <mxCell id="1reo4kSoKwoTpZswy6ko-83" value="" style="edgeStyle=orthogonalEdgeStyle;rounded=0;orthogonalLoop=1;jettySize=auto;html=1;" edge="1" parent="WIyWlLk6GJQsqaUBKTNV-1" source="1reo4kSoKwoTpZswy6ko-80" target="1reo4kSoKwoTpZswy6ko-82">
          <mxGeometry relative="1" as="geometry" />
        </mxCell>
        <mxCell id="1reo4kSoKwoTpZswy6ko-84" value="Successful" style="edgeLabel;html=1;align=center;verticalAlign=middle;resizable=0;points=[];" vertex="1" connectable="0" parent="1reo4kSoKwoTpZswy6ko-83">
          <mxGeometry x="-0.1526" y="-2" relative="1" as="geometry">
            <mxPoint as="offset" />
          </mxGeometry>
        </mxCell>
        <mxCell id="1reo4kSoKwoTpZswy6ko-86" value="" style="edgeStyle=orthogonalEdgeStyle;rounded=0;orthogonalLoop=1;jettySize=auto;html=1;" edge="1" parent="WIyWlLk6GJQsqaUBKTNV-1" source="1reo4kSoKwoTpZswy6ko-80" target="1reo4kSoKwoTpZswy6ko-85">
          <mxGeometry relative="1" as="geometry" />
        </mxCell>
        <mxCell id="1reo4kSoKwoTpZswy6ko-88" value="Failure" style="edgeLabel;html=1;align=center;verticalAlign=middle;resizable=0;points=[];" vertex="1" connectable="0" parent="1reo4kSoKwoTpZswy6ko-86">
          <mxGeometry x="0.0104" relative="1" as="geometry">
            <mxPoint x="5" as="offset" />
          </mxGeometry>
        </mxCell>
        <mxCell id="1reo4kSoKwoTpZswy6ko-80" value="Refresh Browser" style="rhombus;whiteSpace=wrap;html=1;" vertex="1" parent="WIyWlLk6GJQsqaUBKTNV-1">
          <mxGeometry x="2232" y="679" width="80" height="80" as="geometry" />
        </mxCell>
        <mxCell id="1reo4kSoKwoTpZswy6ko-103" value="" style="edgeStyle=orthogonalEdgeStyle;rounded=0;orthogonalLoop=1;jettySize=auto;html=1;" edge="1" parent="WIyWlLk6GJQsqaUBKTNV-1" source="1reo4kSoKwoTpZswy6ko-82" target="1reo4kSoKwoTpZswy6ko-90">
          <mxGeometry relative="1" as="geometry" />
        </mxCell>
        <mxCell id="1reo4kSoKwoTpZswy6ko-82" value="Enter Values into RPA Challenge Website" style="rounded=0;whiteSpace=wrap;html=1;" vertex="1" parent="WIyWlLk6GJQsqaUBKTNV-1">
          <mxGeometry x="2212" y="577" width="120" height="60" as="geometry" />
        </mxCell>
        <mxCell id="1reo4kSoKwoTpZswy6ko-87" style="edgeStyle=orthogonalEdgeStyle;rounded=0;orthogonalLoop=1;jettySize=auto;html=1;exitX=0.5;exitY=0;exitDx=0;exitDy=0;entryX=0;entryY=0.5;entryDx=0;entryDy=0;" edge="1" parent="WIyWlLk6GJQsqaUBKTNV-1" source="1reo4kSoKwoTpZswy6ko-85" target="1reo4kSoKwoTpZswy6ko-82">
          <mxGeometry relative="1" as="geometry" />
        </mxCell>
        <mxCell id="1reo4kSoKwoTpZswy6ko-85" value="Initialize Browser" style="rounded=0;whiteSpace=wrap;html=1;" vertex="1" parent="WIyWlLk6GJQsqaUBKTNV-1">
          <mxGeometry x="2057" y="689" width="120" height="60" as="geometry" />
        </mxCell>
        <mxCell id="1reo4kSoKwoTpZswy6ko-98" value="" style="edgeStyle=orthogonalEdgeStyle;rounded=0;orthogonalLoop=1;jettySize=auto;html=1;" edge="1" parent="WIyWlLk6GJQsqaUBKTNV-1" source="1reo4kSoKwoTpZswy6ko-90" target="1reo4kSoKwoTpZswy6ko-94">
          <mxGeometry relative="1" as="geometry" />
        </mxCell>
        <mxCell id="1reo4kSoKwoTpZswy6ko-90" value="Move Email from Inbox to Config-defined folder" style="rounded=0;whiteSpace=wrap;html=1;" vertex="1" parent="WIyWlLk6GJQsqaUBKTNV-1">
          <mxGeometry x="2212" y="476" width="120" height="60" as="geometry" />
        </mxCell>
        <mxCell id="1reo4kSoKwoTpZswy6ko-96" style="edgeStyle=orthogonalEdgeStyle;rounded=0;orthogonalLoop=1;jettySize=auto;html=1;exitX=0;exitY=0.5;exitDx=0;exitDy=0;entryX=1;entryY=0.5;entryDx=0;entryDy=0;" edge="1" parent="WIyWlLk6GJQsqaUBKTNV-1" source="1reo4kSoKwoTpZswy6ko-94" target="1reo4kSoKwoTpZswy6ko-20">
          <mxGeometry relative="1" as="geometry" />
        </mxCell>
        <mxCell id="1reo4kSoKwoTpZswy6ko-94" value="Append Active Log to Transaction Log file" style="rounded=0;whiteSpace=wrap;html=1;" vertex="1" parent="WIyWlLk6GJQsqaUBKTNV-1">
          <mxGeometry x="2212" y="392" width="120" height="54" as="geometry" />
        </mxCell>
      </root>
    </mxGraphModel>
  </diagram>
</mxfile>
